<?xml version="1.0" encoding="iso-8859-1"?><svg fill="rgba(0, 255, 0, .5)" width="72" height="24" viewBox="0 0 72 24" xmlns="http://www.w3.org/2000/svg" xmlns:xlink="http://www.w3.org/1999/xlink"><svg viewBox="0 0 455 455" width="24" height="24" id="facebook"><path d="M0 0v455h455V0H0zm301.004 125.217H265.44c-7.044 0-14.153 7.28-14.153 12.696v36.264h49.647c-2 27.807-6.103 53.235-6.103 53.235h-43.797V385h-65.266V227.395h-31.77v-53.03h31.77V131.01c0-7.928-1.606-61.01 66.872-61.01h48.365v55.217z" fill="#0F1436" fill-rule="evenodd" clip-rule="evenodd"/></svg><svg viewBox="0 0 455 455" width="24" height="24" id="instagram" x="24"><g fill="#0F1436" fill-rule="evenodd" clip-rule="evenodd"><path d="M336.35 106.363h-35.83c-6.985.05-12.345 5.157-12.395 12.104-.05 12.155-.05 24.26 0 36.414.05 6.898 5.41 12.067 12.307 12.067h35.817c7.188 0 12.446-5.22 12.446-12.41.05-11.913.05-23.864 0-35.766 0-7.148-5.258-12.355-12.345-12.407zM227.59 288.104c33.494-.05 60.535-27.143 60.535-60.635-.05-33.494-27.142-60.522-60.635-60.522-33.378 0-60.47 27.13-60.52 60.47-.052 33.543 27.09 60.686 60.62 60.686z"/><path d="M318.24 261.698C311 280.8 298.894 296.13 282.065 307.65c-30.355 20.73-70.046 22.47-101.95 4.458-16.132-9.132-28.782-21.782-37.61-38.104-12.103-22.33-14.885-45.94-8.776-70.592h-27.345v132.51c0 7.595 5.17 12.752 12.752 12.752 4.864.05 9.678 0 14.543 0h201.87c8.192 0 13.146-5.004 13.146-13.197V203.36h-27.383c5.017 19.84 4.114 39.286-3.074 58.338z"/><path d="M0 0v455h455V0H0zm384.97 105.92v243.25c0 17.91-13.844 33.493-31.65 35.576-1.398.152-2.782.254-4.167.254H105.89c-17.604 0-33.087-13.552-35.423-30.966a43.528 43.528 0 0 1-.445-6.147V106.96c0-18.162 12.155-32.947 30.012-36.363 2.134-.406 4.37-.546 6.554-.546C187.253 70 267.878 70 348.505 70c18.9 0 34.433 14.035 36.363 32.795.153 1.04.102 2.082.102 3.124z"/></g></svg><svg viewBox="0 0 455 455" width="24" height="24" id="twitter" x="48"><path d="M0 0v455h455V0H0zm352.75 163.26c.124 2.772.187 5.56.187 8.36 0 85.402-65.002 183.875-183.873 183.875-36.496 0-70.466-10.697-99.065-29.037 5.055.6 10.198.907 15.416.907 30.278 0 58.143-10.33 80.262-27.668-28.28-.52-52.148-19.204-60.373-44.88a64.403 64.403 0 0 0 12.16 1.163c5.895 0 11.605-.794 17.028-2.268-29.563-5.94-51.84-32.057-51.84-63.368 0-.273 0-.544.005-.814a64.366 64.366 0 0 0 29.27 8.084c-17.34-11.59-28.747-31.37-28.747-53.79 0-11.845 3.188-22.945 8.752-32.492 31.873 39.1 79.493 64.828 133.203 67.526a64.83 64.83 0 0 1-1.677-14.73c0-35.687 28.938-64.622 64.626-64.622 18.59 0 35.385 7.847 47.173 20.406a129.352 129.352 0 0 0 41.038-15.68c-4.824 15.09-15.07 27.753-28.415 35.753 13.074-1.563 25.528-5.038 37.118-10.178-8.662 12.96-19.618 24.342-32.247 33.452z" fill="#0F1436" fill-rule="evenodd" clip-rule="evenodd"/></svg></svg>